<svg xmlns="http://www.w3.org/2000/svg" xmlns:xlink="http://www.w3.org/1999/xlink" width="1240" height="754.72"><rect width="1240" height="754.72" rx="5" ry="5" class="a"/><svg y="0%" x="0%"><circle cx="20" cy="20" r="6" fill="#ff5f58"/><circle cx="40" cy="20" r="6" fill="#ffbd2e"/><circle cx="60" cy="20" r="6" fill="#18c132"/></svg><svg height="694.72" viewBox="0 0 120 69.472" width="1200" x="15" xmlns="http://www.w3.org/2000/svg" xmlns:xlink="http://www.w3.org/1999/xlink" y="50"><style>@keyframes i{0%{transform:translateX(0)}.9%{transform:translateX(-360px)}5%{transform:translateX(-480px)}5.3%{transform:translateX(-600px)}5.5%{transform:translateX(-720px)}5.7%{transform:translateX(-840px)}6%{transform:translateX(-960px)}6.4%{transform:translateX(-1080px)}6.6%{transform:translateX(-1200px)}7.2%{transform:translateX(-1320px)}7.8%{transform:translateX(-1440px)}8%{transform:translateX(-1560px)}8.2%{transform:translateX(-1680px)}8.3%{transform:translateX(-1800px)}8.6%{transform:translateX(-1920px)}8.8%{transform:translateX(-2040px)}9.1%{transform:translateX(-2160px)}9.4%{transform:translateX(-2280px)}9.8%{transform:translateX(-2400px)}10.5%{transform:translateX(-2520px)}10.9%{transform:translateX(-2640px)}11.1%{transform:translateX(-2760px)}11.3%{transform:translateX(-3000px)}19.8%{transform:translateX(-3120px)}19.9%{transform:translateX(-3240px)}20%{transform:translateX(-3360px)}22.8%{transform:translateX(-3480px)}74.6%{transform:translateX(-3600px)}77.9%{transform:translateX(-3720px)}86.9%{transform:translateX(-3960px)}99%{transform:translateX(-4440px)}to{transform:translateX(-4560px)}}.a{fill:#000}.f{fill:#f2f2f2;white-space:pre}</style><g font-family="Monaco,Consolas,Menlo,'Bitstream Vera Sans Mono','Powerline Symbols',monospace" font-size="1.67"><defs><symbol id="1"><text y="1.67" class="f">&gt;</text></symbol><symbol id="2"><text y="1.67" class="f">&gt;</text><text x="3.006" y="1.67" class="f">kubectl</text></symbol><symbol id="3"><text y="1.67" class="f">&gt;</text><text x="3.006" y="1.67" class="f">kubectl</text><text x="11.022" y="1.67" class="f">get</text></symbol><symbol id="4"><text y="1.67" class="f">&gt;</text><text x="3.006" y="1.67" class="f">kubectl</text><text x="11.022" y="1.67" class="f">get</text><text x="15.03" y="1.67" class="f">pods</text></symbol><symbol id="5"><text y="1.67" class="f">&gt;</text><text x="3.006" y="1.67" class="f">kubectl</text><text x="11.022" y="1.67" class="f">get</text><text x="15.03" y="1.67" class="f">pods</text><text x="20.04" y="1.67" class="f">-w</text></symbol><symbol id="6"><text y="1.67" class="f">NAME</text><text x="51.102" y="1.67" class="f">READY</text><text x="59.118" y="1.67" class="f">STATUS</text><text x="69.138" y="1.67" class="f">RESTARTS</text><text x="80.16" y="1.67" class="f">AGE</text></symbol><symbol id="7"><text y="1.67" class="f">keda-operator-metrics-apiserver-8486847d4c-fh74q</text><text x="51.102" y="1.67" class="f">1/1</text><text x="59.118" y="1.67" class="f">Running</text><text x="69.138" y="1.67" class="f">25</text><text x="80.16" y="1.67" class="f">19d</text></symbol><symbol id="8"><text y="1.67" class="f">keda-operator-7756c57c49-w4h8s</text><text x="51.102" y="1.67" class="f">1/1</text><text x="59.118" y="1.67" class="f">Running</text><text x="69.138" y="1.67" class="f">25</text><text x="80.16" y="1.67" class="f">19d</text></symbol><symbol id="9"><text y="1.67" class="f">mqfn-79dc6d844-67jxk</text><text x="51.102" y="1.67" class="f">0/1</text><text x="59.118" y="1.67" class="f">Pending</text><text x="69.138" y="1.67" class="f">0</text><text x="80.16" y="1.67" class="f">0s</text></symbol><symbol id="10"><text y="1.67" class="f">mqfn-79dc6d844-67jxk</text><text x="51.102" y="1.67" class="f">0/1</text><text x="59.118" y="1.67" class="f">ContainerCreating</text><text x="79.158" y="1.67" class="f">0</text><text x="90.18" y="1.67" class="f">0s</text></symbol><symbol id="11"><text y="1.67" class="f">mqfn-79dc6d844-67jxk</text><text x="51.102" y="1.67" class="f">1/1</text><text x="59.118" y="1.67" class="f">Running</text><text x="79.158" y="1.67" class="f">0</text><text x="90.18" y="1.67" class="f">2s</text></symbol><symbol id="12"><text y="1.67" class="f">mqfn-79dc6d844-67jxk</text><text x="51.102" y="1.67" class="f">1/1</text><text x="59.118" y="1.67" class="f">Terminating</text><text x="79.158" y="1.67" class="f">0</text><text x="90.18" y="1.67" class="f">36s</text></symbol><symbol id="13"><text y="1.67" class="f">mqfn-79dc6d844-67jxk</text><text x="51.102" y="1.67" class="f">0/1</text><text x="59.118" y="1.67" class="f">Terminating</text><text x="79.158" y="1.67" class="f">0</text><text x="90.18" y="1.67" class="f">38s</text></symbol><symbol id="14"><text y="1.67" class="f">mqfn-79dc6d844-67jxk</text><text x="51.102" y="1.67" class="f">0/1</text><text x="59.118" y="1.67" class="f">Terminating</text><text x="79.158" y="1.67" class="f">0</text><text x="90.18" y="1.67" class="f">44s</text></symbol><symbol id="15"><text y="1.67" class="f">^C</text></symbol><symbol id="a"><path fill="transparent" d="M0 0h120v32H0z"/></symbol><symbol id="b"><path fill="#4d4d4d" d="M0 0h1.102v2.171H0z"/></symbol></defs><path class="a" d="M0 0h120v69.472H0z"/><g style="animation-duration:16.451918s;animation-iteration-count:infinite;animation-name:i;animation-timing-function:steps(1,end)"><svg width="4680"><svg><use xlink:href="#a"/><use xlink:href="#b" x="-.004"/></svg><svg x="120"><use xlink:href="#a"/><use xlink:href="#b" x="-.004"/></svg><svg x="240"><use xlink:href="#a"/><use xlink:href="#b" x="-.004"/></svg><svg x="360"><use xlink:href="#a"/><use xlink:href="#b" x="2.996"/><use xlink:href="#1"/></svg><svg x="480"><use xlink:href="#a"/><use xlink:href="#b" x="3.996"/><text y="1.67" class="f">&gt;</text><text x="3.006" y="1.67" class="f">k</text></svg><svg x="600"><use xlink:href="#a"/><use xlink:href="#b" x="4.996"/><text y="1.67" class="f">&gt;</text><text x="3.006" y="1.67" class="f">ku</text></svg><svg x="720"><use xlink:href="#a"/><use xlink:href="#b" x="5.996"/><text y="1.67" class="f">&gt;</text><text x="3.006" y="1.67" class="f">kub</text></svg><svg x="840"><use xlink:href="#a"/><use xlink:href="#b" x="6.996"/><text y="1.67" class="f">&gt;</text><text x="3.006" y="1.67" class="f">kube</text></svg><svg x="960"><use xlink:href="#a"/><use xlink:href="#b" x="7.996"/><text y="1.67" class="f">&gt;</text><text x="3.006" y="1.67" class="f">kubec</text></svg><svg x="1080"><use xlink:href="#a"/><use xlink:href="#b" x="8.996"/><text y="1.67" class="f">&gt;</text><text x="3.006" y="1.67" class="f">kubect</text></svg><svg x="1200"><use xlink:href="#a"/><use xlink:href="#b" x="9.996"/><use xlink:href="#2"/></svg><svg x="1320"><use xlink:href="#a"/><use xlink:href="#b" x="10.996"/><use xlink:href="#2"/></svg><svg x="1440"><use xlink:href="#a"/><use xlink:href="#b" x="11.996"/><text y="1.67" class="f">&gt;</text><text x="3.006" y="1.67" class="f">kubectl</text><text x="11.022" y="1.67" class="f">g</text></svg><svg x="1560"><use xlink:href="#a"/><use xlink:href="#b" x="12.996"/><text y="1.67" class="f">&gt;</text><text x="3.006" y="1.67" class="f">kubectl</text><text x="11.022" y="1.67" class="f">ge</text></svg><svg x="1680"><use xlink:href="#a"/><use xlink:href="#b" x="13.996"/><use xlink:href="#3"/></svg><svg x="1800"><use xlink:href="#a"/><use xlink:href="#b" x="14.996"/><use xlink:href="#3"/></svg><svg x="1920"><use xlink:href="#a"/><use xlink:href="#b" x="15.996"/><text y="1.67" class="f">&gt;</text><text x="3.006" y="1.67" class="f">kubectl</text><text x="11.022" y="1.67" class="f">get</text><text x="15.03" y="1.67" class="f">p</text></svg><svg x="2040"><use xlink:href="#a"/><use xlink:href="#b" x="16.996"/><text y="1.67" class="f">&gt;</text><text x="3.006" y="1.67" class="f">kubectl</text><text x="11.022" y="1.67" class="f">get</text><text x="15.03" y="1.67" class="f">po</text></svg><svg x="2160"><use xlink:href="#a"/><use xlink:href="#b" x="17.996"/><text y="1.67" class="f">&gt;</text><text x="3.006" y="1.67" class="f">kubectl</text><text x="11.022" y="1.67" class="f">get</text><text x="15.03" y="1.67" class="f">pod</text></svg><svg x="2280"><use xlink:href="#a"/><use xlink:href="#b" x="18.996"/><use xlink:href="#4"/></svg><svg x="2400"><use xlink:href="#a"/><use xlink:href="#b" x="19.996"/><use xlink:href="#4"/></svg><svg x="2520"><use xlink:href="#a"/><use xlink:href="#b" x="20.996"/><text y="1.67" class="f">&gt;</text><text x="3.006" y="1.67" class="f">kubectl</text><text x="11.022" y="1.67" class="f">get</text><text x="15.03" y="1.67" class="f">pods</text><text x="20.04" y="1.67" class="f">-</text></svg><svg x="2640"><use xlink:href="#a"/><use xlink:href="#b" x="21.996"/><use xlink:href="#5"/></svg><svg x="2760"><use xlink:href="#a"/><use xlink:href="#b" x="-.004" y="2.146"/><use xlink:href="#5"/></svg><svg x="2880"><use xlink:href="#a"/><use xlink:href="#b" x="53.996" y="6.488"/><use xlink:href="#5"/><use xlink:href="#6" y="2.171"/><use xlink:href="#7" y="4.342"/><text y="8.183" class="f">keda-operator-7756c57c49-w4h8s</text><text x="51.102" y="8.183" class="f">1/1</text></svg><svg x="3000"><use xlink:href="#a"/><use xlink:href="#b" x="-.004" y="8.659"/><use xlink:href="#5"/><use xlink:href="#6" y="2.171"/><use xlink:href="#7" y="4.342"/><use xlink:href="#8" y="6.513"/></svg><svg x="3120"><use xlink:href="#a"/><use xlink:href="#b" x="-.004" y="10.83"/><use xlink:href="#5"/><use xlink:href="#6" y="2.171"/><use xlink:href="#7" y="4.342"/><use xlink:href="#8" y="6.513"/><use xlink:href="#9" y="8.684"/></svg><svg x="3240"><use xlink:href="#a"/><use xlink:href="#b" x="-.004" y="13.001"/><use xlink:href="#5"/><use xlink:href="#6" y="2.171"/><use xlink:href="#7" y="4.342"/><use xlink:href="#8" y="6.513"/><use xlink:href="#9" y="8.684"/><use xlink:href="#9" y="10.855"/></svg><svg x="3360"><use xlink:href="#a"/><use xlink:href="#b" x="-.004" y="15.172"/><use xlink:href="#5"/><use xlink:href="#6" y="2.171"/><use xlink:href="#7" y="4.342"/><use xlink:href="#8" y="6.513"/><use xlink:href="#9" y="8.684"/><use xlink:href="#9" y="10.855"/><use xlink:href="#10" y="13.026"/></svg><svg x="3480"><use xlink:href="#a"/><use xlink:href="#b" x="-.004" y="17.343"/><use xlink:href="#5"/><use xlink:href="#6" y="2.171"/><use xlink:href="#7" y="4.342"/><use xlink:href="#8" y="6.513"/><use xlink:href="#9" y="8.684"/><use xlink:href="#9" y="10.855"/><use xlink:href="#10" y="13.026"/><use xlink:href="#11" y="15.197"/></svg><svg x="3600"><use xlink:href="#a"/><use xlink:href="#b" x="-.004" y="19.514"/><use xlink:href="#5"/><use xlink:href="#6" y="2.171"/><use xlink:href="#7" y="4.342"/><use xlink:href="#8" y="6.513"/><use xlink:href="#9" y="8.684"/><use xlink:href="#9" y="10.855"/><use xlink:href="#10" y="13.026"/><use xlink:href="#11" y="15.197"/><use xlink:href="#12" y="17.368"/></svg><svg x="3720"><use xlink:href="#a"/><use xlink:href="#b" x="-.004" y="21.685"/><use xlink:href="#5"/><use xlink:href="#6" y="2.171"/><use xlink:href="#7" y="4.342"/><use xlink:href="#8" y="6.513"/><use xlink:href="#9" y="8.684"/><use xlink:href="#9" y="10.855"/><use xlink:href="#10" y="13.026"/><use xlink:href="#11" y="15.197"/><use xlink:href="#12" y="17.368"/><use xlink:href="#13" y="19.539"/></svg><svg x="3840"><use xlink:href="#a"/><use xlink:href="#b" x="-.004" y="23.856"/><use xlink:href="#5"/><use xlink:href="#6" y="2.171"/><use xlink:href="#7" y="4.342"/><use xlink:href="#8" y="6.513"/><use xlink:href="#9" y="8.684"/><use xlink:href="#9" y="10.855"/><use xlink:href="#10" y="13.026"/><use xlink:href="#11" y="15.197"/><use xlink:href="#12" y="17.368"/><use xlink:href="#13" y="19.539"/><use xlink:href="#14" y="21.71"/></svg><svg x="3960"><use xlink:href="#a"/><use xlink:href="#b" x="-.004" y="26.027"/><use xlink:href="#5"/><use xlink:href="#6" y="2.171"/><use xlink:href="#7" y="4.342"/><use xlink:href="#8" y="6.513"/><use xlink:href="#9" y="8.684"/><use xlink:href="#9" y="10.855"/><use xlink:href="#10" y="13.026"/><use xlink:href="#11" y="15.197"/><use xlink:href="#12" y="17.368"/><use xlink:href="#13" y="19.539"/><use xlink:href="#14" y="21.71"/><use xlink:href="#14" y="23.881"/></svg><svg x="4080"><use xlink:href="#a"/><use xlink:href="#b" x="1.996" y="26.027"/><use xlink:href="#5"/><use xlink:href="#6" y="2.171"/><use xlink:href="#7" y="4.342"/><use xlink:href="#8" y="6.513"/><use xlink:href="#9" y="8.684"/><use xlink:href="#9" y="10.855"/><use xlink:href="#10" y="13.026"/><use xlink:href="#11" y="15.197"/><use xlink:href="#12" y="17.368"/><use xlink:href="#13" y="19.539"/><use xlink:href="#14" y="21.71"/><use xlink:href="#14" y="23.881"/><use xlink:href="#15" y="26.052"/></svg><svg x="4200"><use xlink:href="#a"/><use xlink:href="#b" x="-.004" y="28.198"/><use xlink:href="#5"/><use xlink:href="#6" y="2.171"/><use xlink:href="#7" y="4.342"/><use xlink:href="#8" y="6.513"/><use xlink:href="#9" y="8.684"/><use xlink:href="#9" y="10.855"/><use xlink:href="#10" y="13.026"/><use xlink:href="#11" y="15.197"/><use xlink:href="#12" y="17.368"/><use xlink:href="#13" y="19.539"/><use xlink:href="#14" y="21.71"/><use xlink:href="#14" y="23.881"/><use xlink:href="#15" y="26.052"/></svg><svg x="4320"><use xlink:href="#a"/><use xlink:href="#b" x="-.004" y="28.198"/><use xlink:href="#5"/><use xlink:href="#6" y="2.171"/><use xlink:href="#7" y="4.342"/><use xlink:href="#8" y="6.513"/><use xlink:href="#9" y="8.684"/><use xlink:href="#9" y="10.855"/><use xlink:href="#10" y="13.026"/><use xlink:href="#11" y="15.197"/><use xlink:href="#12" y="17.368"/><use xlink:href="#13" y="19.539"/><use xlink:href="#14" y="21.71"/><use xlink:href="#14" y="23.881"/><use xlink:href="#15" y="26.052"/></svg><svg x="4440"><use xlink:href="#a"/><use xlink:href="#b" x="2.996" y="28.198"/><use xlink:href="#5"/><use xlink:href="#6" y="2.171"/><use xlink:href="#7" y="4.342"/><use xlink:href="#8" y="6.513"/><use xlink:href="#9" y="8.684"/><use xlink:href="#9" y="10.855"/><use xlink:href="#10" y="13.026"/><use xlink:href="#11" y="15.197"/><use xlink:href="#12" y="17.368"/><use xlink:href="#13" y="19.539"/><use xlink:href="#14" y="21.71"/><use xlink:href="#14" y="23.881"/><use xlink:href="#15" y="26.052"/><use xlink:href="#1" y="28.223"/></svg><svg x="4560"><use xlink:href="#a"/><use xlink:href="#b" x="-.004" y="30.369"/><use xlink:href="#5"/><use xlink:href="#6" y="2.171"/><use xlink:href="#7" y="4.342"/><use xlink:href="#8" y="6.513"/><use xlink:href="#9" y="8.684"/><use xlink:href="#9" y="10.855"/><use xlink:href="#10" y="13.026"/><use xlink:href="#11" y="15.197"/><use xlink:href="#12" y="17.368"/><use xlink:href="#13" y="19.539"/><use xlink:href="#14" y="21.71"/><use xlink:href="#14" y="23.881"/><use xlink:href="#15" y="26.052"/><use xlink:href="#1" y="28.223"/></svg></svg></g></g></svg></svg>